<svg xmlns="http://www.w3.org/2000/svg" width="1120" height="600" viewBox="0 0 1120 600">
<rect width="1120" height="600" fill="#ffffff"/>
<style>
text{font-family:Arial,Helvetica,sans-serif;letter-spacing:0;fill:#111827}.title{font-size:22px;font-weight:700}.subtitle{font-size:12px;fill:#4b5563}.panel{font-size:14px;font-weight:700}.axis{font-size:11px;fill:#374151}.tick{font-size:10px;fill:#4b5563}.legend{font-size:11px;fill:#111827}.value{font-size:9px;fill:#111827}.grid{stroke:#e5e7eb;stroke-width:1}.axisline{stroke:#9ca3af;stroke-width:1}</style>
<text x="32.0" y="38.0" text-anchor="start" class="title" >SyntheticEffectModifier model accuracy</text>
<text x="32.0" y="60.0" text-anchor="start" class="subtitle" >Held-out test accuracy averaged across 1000 seeds; same trained models used for prediction intervention.</text>
<rect x="585.0" y="44.0" width="12" height="12" rx="2" fill="#6b7280"/>
<text x="603.0" y="54.0" text-anchor="start" class="legend" >FedAvg</text>
<rect x="661.4" y="44.0" width="12" height="12" rx="2" fill="#0072B2"/>
<text x="679.4" y="54.0" text-anchor="start" class="legend" >FedFisher diag</text>
<rect x="789.0" y="44.0" width="12" height="12" rx="2" fill="#009E73"/>
<text x="807.0" y="54.0" text-anchor="start" class="legend" >FedFisher KFAC</text>
<rect x="916.6" y="44.0" width="12" height="12" rx="2" fill="#CC79A7"/>
<text x="934.6" y="54.0" text-anchor="start" class="legend" >Pooled</text>
<text x="47.0" y="97.0" text-anchor="start" class="panel" >A</text>
<text x="290.0" y="97.0" text-anchor="middle" class="panel" >MLP</text>
<line x1="95.0" y1="450.0" x2="485.0" y2="450.0" class="grid"/>
<text x="88.0" y="453.0" text-anchor="end" class="tick" >55</text>
<line x1="95.0" y1="370.2" x2="485.0" y2="370.2" class="grid"/>
<text x="88.0" y="373.2" text-anchor="end" class="tick" >60</text>
<line x1="95.0" y1="290.5" x2="485.0" y2="290.5" class="grid"/>
<text x="88.0" y="293.5" text-anchor="end" class="tick" >65</text>
<line x1="95.0" y1="210.7" x2="485.0" y2="210.7" class="grid"/>
<text x="88.0" y="213.7" text-anchor="end" class="tick" >70</text>
<line x1="95.0" y1="131.0" x2="485.0" y2="131.0" class="grid"/>
<text x="88.0" y="134.0" text-anchor="end" class="tick" >75</text>
<line x1="95.0" y1="115.0" x2="95.0" y2="450.0" class="axisline"/>
<line x1="95.0" y1="450.0" x2="485.0" y2="450.0" class="axisline"/>
<text x="52.0" y="282.5" text-anchor="middle" class="axis" transform="rotate(-90 52 282.5)">Accuracy (%)</text>
<rect x="132.5" y="336.5" width="24.0" height="113.5" fill="#6b7280" rx="2"/>
<line x1="144.5" y1="336.3" x2="144.5" y2="336.7" stroke="#111827" stroke-width="1"/>
<line x1="140.5" y1="336.3" x2="148.5" y2="336.3" stroke="#111827" stroke-width="1"/>
<text x="144.5" y="330.5" text-anchor="middle" class="value" >62.1</text>
<rect x="164.5" y="336.5" width="24.0" height="113.5" fill="#0072B2" rx="2"/>
<line x1="176.5" y1="336.3" x2="176.5" y2="336.7" stroke="#111827" stroke-width="1"/>
<line x1="172.5" y1="336.3" x2="180.5" y2="336.3" stroke="#111827" stroke-width="1"/>
<text x="176.5" y="330.5" text-anchor="middle" class="value" >62.1</text>
<rect x="196.5" y="339.3" width="24.0" height="110.7" fill="#009E73" rx="2"/>
<line x1="208.5" y1="339.1" x2="208.5" y2="339.6" stroke="#111827" stroke-width="1"/>
<line x1="204.5" y1="339.1" x2="212.5" y2="339.1" stroke="#111827" stroke-width="1"/>
<text x="208.5" y="333.3" text-anchor="middle" class="value" >61.9</text>
<rect x="228.5" y="371.2" width="24.0" height="78.8" fill="#CC79A7" rx="2"/>
<line x1="240.5" y1="370.9" x2="240.5" y2="371.4" stroke="#111827" stroke-width="1"/>
<line x1="236.5" y1="370.9" x2="244.5" y2="370.9" stroke="#111827" stroke-width="1"/>
<text x="240.5" y="365.2" text-anchor="middle" class="value" >59.9</text>
<text x="192.5" y="480.0" text-anchor="middle" class="axis" >IID</text>
<rect x="327.5" y="442.2" width="24.0" height="7.8" fill="#6b7280" rx="2"/>
<line x1="339.5" y1="440.7" x2="339.5" y2="443.7" stroke="#111827" stroke-width="1"/>
<line x1="335.5" y1="440.7" x2="343.5" y2="440.7" stroke="#111827" stroke-width="1"/>
<text x="339.5" y="436.2" text-anchor="middle" class="value" >55.5</text>
<rect x="359.5" y="404.3" width="24.0" height="45.7" fill="#0072B2" rx="2"/>
<line x1="371.5" y1="402.6" x2="371.5" y2="406.1" stroke="#111827" stroke-width="1"/>
<line x1="367.5" y1="402.6" x2="375.5" y2="402.6" stroke="#111827" stroke-width="1"/>
<text x="371.5" y="398.3" text-anchor="middle" class="value" >57.9</text>
<rect x="391.5" y="412.0" width="24.0" height="38.0" fill="#009E73" rx="2"/>
<line x1="403.5" y1="410.8" x2="403.5" y2="413.3" stroke="#111827" stroke-width="1"/>
<line x1="399.5" y1="410.8" x2="407.5" y2="410.8" stroke="#111827" stroke-width="1"/>
<text x="403.5" y="406.0" text-anchor="middle" class="value" >57.4</text>
<rect x="423.5" y="371.6" width="24.0" height="78.4" fill="#CC79A7" rx="2"/>
<line x1="435.5" y1="371.3" x2="435.5" y2="371.9" stroke="#111827" stroke-width="1"/>
<line x1="431.5" y1="371.3" x2="439.5" y2="371.3" stroke="#111827" stroke-width="1"/>
<text x="435.5" y="365.6" text-anchor="middle" class="value" >59.9</text>
<text x="387.5" y="480.0" text-anchor="middle" class="axis" >non-IID</text>
<text x="562.0" y="97.0" text-anchor="start" class="panel" >B</text>
<text x="805.0" y="97.0" text-anchor="middle" class="panel" >Deep MLP</text>
<line x1="610.0" y1="450.0" x2="1000.0" y2="450.0" class="grid"/>
<text x="603.0" y="453.0" text-anchor="end" class="tick" >55</text>
<line x1="610.0" y1="370.2" x2="1000.0" y2="370.2" class="grid"/>
<text x="603.0" y="373.2" text-anchor="end" class="tick" >60</text>
<line x1="610.0" y1="290.5" x2="1000.0" y2="290.5" class="grid"/>
<text x="603.0" y="293.5" text-anchor="end" class="tick" >65</text>
<line x1="610.0" y1="210.7" x2="1000.0" y2="210.7" class="grid"/>
<text x="603.0" y="213.7" text-anchor="end" class="tick" >70</text>
<line x1="610.0" y1="131.0" x2="1000.0" y2="131.0" class="grid"/>
<text x="603.0" y="134.0" text-anchor="end" class="tick" >75</text>
<line x1="610.0" y1="115.0" x2="610.0" y2="450.0" class="axisline"/>
<line x1="610.0" y1="450.0" x2="1000.0" y2="450.0" class="axisline"/>
<text x="567.0" y="282.5" text-anchor="middle" class="axis" transform="rotate(-90 567 282.5)">Accuracy (%)</text>
<rect x="647.5" y="334.5" width="24.0" height="115.5" fill="#6b7280" rx="2"/>
<line x1="659.5" y1="334.2" x2="659.5" y2="334.8" stroke="#111827" stroke-width="1"/>
<line x1="655.5" y1="334.2" x2="663.5" y2="334.2" stroke="#111827" stroke-width="1"/>
<text x="659.5" y="328.5" text-anchor="middle" class="value" >62.2</text>
<rect x="679.5" y="336.5" width="24.0" height="113.5" fill="#0072B2" rx="2"/>
<line x1="691.5" y1="336.2" x2="691.5" y2="336.8" stroke="#111827" stroke-width="1"/>
<line x1="687.5" y1="336.2" x2="695.5" y2="336.2" stroke="#111827" stroke-width="1"/>
<text x="691.5" y="330.5" text-anchor="middle" class="value" >62.1</text>
<rect x="711.5" y="336.7" width="24.0" height="113.3" fill="#009E73" rx="2"/>
<line x1="723.5" y1="336.4" x2="723.5" y2="336.9" stroke="#111827" stroke-width="1"/>
<line x1="719.5" y1="336.4" x2="727.5" y2="336.4" stroke="#111827" stroke-width="1"/>
<text x="723.5" y="330.7" text-anchor="middle" class="value" >62.1</text>
<rect x="743.5" y="363.7" width="24.0" height="86.3" fill="#CC79A7" rx="2"/>
<line x1="755.5" y1="363.4" x2="755.5" y2="363.9" stroke="#111827" stroke-width="1"/>
<line x1="751.5" y1="363.4" x2="759.5" y2="363.4" stroke="#111827" stroke-width="1"/>
<text x="755.5" y="357.7" text-anchor="middle" class="value" >60.4</text>
<text x="707.5" y="480.0" text-anchor="middle" class="axis" >IID</text>
<rect x="842.5" y="460.8" width="24.0" height="-10.8" fill="#6b7280" rx="2"/>
<line x1="854.5" y1="458.9" x2="854.5" y2="450.0" stroke="#111827" stroke-width="1"/>
<line x1="850.5" y1="458.9" x2="858.5" y2="458.9" stroke="#111827" stroke-width="1"/>
<text x="854.5" y="454.8" text-anchor="middle" class="value" >54.3</text>
<rect x="874.5" y="422.3" width="24.0" height="27.7" fill="#0072B2" rx="2"/>
<line x1="886.5" y1="420.4" x2="886.5" y2="424.2" stroke="#111827" stroke-width="1"/>
<line x1="882.5" y1="420.4" x2="890.5" y2="420.4" stroke="#111827" stroke-width="1"/>
<text x="886.5" y="416.3" text-anchor="middle" class="value" >56.7</text>
<rect x="906.5" y="412.1" width="24.0" height="37.9" fill="#009E73" rx="2"/>
<line x1="918.5" y1="410.3" x2="918.5" y2="413.9" stroke="#111827" stroke-width="1"/>
<line x1="914.5" y1="410.3" x2="922.5" y2="410.3" stroke="#111827" stroke-width="1"/>
<text x="918.5" y="406.1" text-anchor="middle" class="value" >57.4</text>
<rect x="938.5" y="364.0" width="24.0" height="86.0" fill="#CC79A7" rx="2"/>
<line x1="950.5" y1="363.7" x2="950.5" y2="364.3" stroke="#111827" stroke-width="1"/>
<line x1="946.5" y1="363.7" x2="954.5" y2="363.7" stroke="#111827" stroke-width="1"/>
<text x="950.5" y="358.0" text-anchor="middle" class="value" >60.4</text>
<text x="902.5" y="480.0" text-anchor="middle" class="axis" >non-IID</text>
</svg>
