<svg xmlns="http://www.w3.org/2000/svg" width="1120" height="720" viewBox="0 0 1120 720">
<rect width="1120" height="720" fill="#ffffff"/>
<style>
text{font-family:Arial,Helvetica,sans-serif;letter-spacing:0;fill:#111827}.title{font-size:22px;font-weight:700}.subtitle{font-size:12px;fill:#4b5563}.panel{font-size:14px;font-weight:700}.axis{font-size:11px;fill:#374151}.tick{font-size:10px;fill:#4b5563}.legend{font-size:11px;fill:#111827}.value{font-size:9px;fill:#111827}.grid{stroke:#e5e7eb;stroke-width:1}.axisline{stroke:#9ca3af;stroke-width:1}</style>
<text x="32.0" y="38.0" text-anchor="start" class="title" >SyntheticEffectModifier signal recovery</text>
<text x="32.0" y="60.0" text-anchor="start" class="subtitle" >1000 seeds; non-IID split; prediction-intervention ranks interaction columns only.</text>
<text x="32.0" y="686.0" text-anchor="start" class="subtitle" >Pooled is a centralized reference model, not a federated method.</text>
<rect x="585.0" y="44.0" width="12" height="12" rx="2" fill="#6b7280"/>
<text x="603.0" y="54.0" text-anchor="start" class="legend" >FedAvg</text>
<rect x="661.4" y="44.0" width="12" height="12" rx="2" fill="#0072B2"/>
<text x="679.4" y="54.0" text-anchor="start" class="legend" >FedFisher diag</text>
<rect x="789.0" y="44.0" width="12" height="12" rx="2" fill="#009E73"/>
<text x="807.0" y="54.0" text-anchor="start" class="legend" >FedFisher KFAC</text>
<rect x="916.6" y="44.0" width="12" height="12" rx="2" fill="#CC79A7"/>
<text x="934.6" y="54.0" text-anchor="start" class="legend" >Pooled</text>
<text x="47.0" y="94.0" text-anchor="start" class="panel" >A</text>
<text x="290.0" y="94.0" text-anchor="middle" class="panel" >MLP</text>
<line x1="95.0" y1="330.0" x2="485.0" y2="330.0" class="grid"/>
<text x="88.0" y="333.0" text-anchor="end" class="tick" >0</text>
<line x1="95.0" y1="286.0" x2="485.0" y2="286.0" class="grid"/>
<text x="88.0" y="289.0" text-anchor="end" class="tick" >2</text>
<line x1="95.0" y1="242.0" x2="485.0" y2="242.0" class="grid"/>
<text x="88.0" y="245.0" text-anchor="end" class="tick" >4</text>
<line x1="95.0" y1="198.0" x2="485.0" y2="198.0" class="grid"/>
<text x="88.0" y="201.0" text-anchor="end" class="tick" >6</text>
<line x1="95.0" y1="154.0" x2="485.0" y2="154.0" class="grid"/>
<text x="88.0" y="157.0" text-anchor="end" class="tick" >8</text>
<line x1="95.0" y1="110.0" x2="485.0" y2="110.0" class="grid"/>
<text x="88.0" y="113.0" text-anchor="end" class="tick" >10</text>
<line x1="95.0" y1="110.0" x2="95.0" y2="330.0" class="axisline"/>
<line x1="95.0" y1="330.0" x2="485.0" y2="330.0" class="axisline"/>
<text x="52.0" y="220.0" text-anchor="middle" class="axis" transform="rotate(-90 52 220.0)">Top-10 signal hits</text>
<rect x="132.5" y="192.6" width="24.0" height="137.4" fill="#6b7280" rx="2"/>
<line x1="144.5" y1="190.3" x2="144.5" y2="194.8" stroke="#111827" stroke-width="1"/>
<line x1="140.5" y1="190.3" x2="148.5" y2="190.3" stroke="#111827" stroke-width="1"/>
<text x="144.5" y="186.6" text-anchor="middle" class="value" >6.2</text>
<rect x="164.5" y="153.6" width="24.0" height="176.4" fill="#0072B2" rx="2"/>
<line x1="176.5" y1="151.4" x2="176.5" y2="155.9" stroke="#111827" stroke-width="1"/>
<line x1="172.5" y1="151.4" x2="180.5" y2="151.4" stroke="#111827" stroke-width="1"/>
<text x="176.5" y="147.6" text-anchor="middle" class="value" >8.0</text>
<rect x="196.5" y="162.0" width="24.0" height="168.0" fill="#009E73" rx="2"/>
<line x1="208.5" y1="160.1" x2="208.5" y2="163.9" stroke="#111827" stroke-width="1"/>
<line x1="204.5" y1="160.1" x2="212.5" y2="160.1" stroke="#111827" stroke-width="1"/>
<text x="208.5" y="156.0" text-anchor="middle" class="value" >7.6</text>
<rect x="228.5" y="110.0" width="24.0" height="220.0" fill="#CC79A7" rx="2"/>
<line x1="240.5" y1="110.0" x2="240.5" y2="110.0" stroke="#111827" stroke-width="1"/>
<line x1="236.5" y1="110.0" x2="244.5" y2="110.0" stroke="#111827" stroke-width="1"/>
<text x="240.5" y="104.0" text-anchor="middle" class="value" >10.0</text>
<text x="192.5" y="360.0" text-anchor="middle" class="axis" >Margin drop</text>
<rect x="327.5" y="194.4" width="24.0" height="135.6" fill="#6b7280" rx="2"/>
<line x1="339.5" y1="192.2" x2="339.5" y2="196.6" stroke="#111827" stroke-width="1"/>
<line x1="335.5" y1="192.2" x2="343.5" y2="192.2" stroke="#111827" stroke-width="1"/>
<text x="339.5" y="188.4" text-anchor="middle" class="value" >6.2</text>
<rect x="359.5" y="156.6" width="24.0" height="173.4" fill="#0072B2" rx="2"/>
<line x1="371.5" y1="154.3" x2="371.5" y2="158.9" stroke="#111827" stroke-width="1"/>
<line x1="367.5" y1="154.3" x2="375.5" y2="154.3" stroke="#111827" stroke-width="1"/>
<text x="371.5" y="150.6" text-anchor="middle" class="value" >7.9</text>
<rect x="391.5" y="171.6" width="24.0" height="158.4" fill="#009E73" rx="2"/>
<line x1="403.5" y1="169.5" x2="403.5" y2="173.6" stroke="#111827" stroke-width="1"/>
<line x1="399.5" y1="169.5" x2="407.5" y2="169.5" stroke="#111827" stroke-width="1"/>
<text x="403.5" y="165.6" text-anchor="middle" class="value" >7.2</text>
<rect x="423.5" y="110.0" width="24.0" height="220.0" fill="#CC79A7" rx="2"/>
<line x1="435.5" y1="110.0" x2="435.5" y2="110.0" stroke="#111827" stroke-width="1"/>
<line x1="431.5" y1="110.0" x2="439.5" y2="110.0" stroke="#111827" stroke-width="1"/>
<text x="435.5" y="104.0" text-anchor="middle" class="value" >10.0</text>
<text x="387.5" y="360.0" text-anchor="middle" class="axis" >Abs logit change</text>
<text x="562.0" y="94.0" text-anchor="start" class="panel" >B</text>
<text x="805.0" y="94.0" text-anchor="middle" class="panel" >Deep MLP</text>
<line x1="610.0" y1="330.0" x2="1000.0" y2="330.0" class="grid"/>
<text x="603.0" y="333.0" text-anchor="end" class="tick" >0</text>
<line x1="610.0" y1="286.0" x2="1000.0" y2="286.0" class="grid"/>
<text x="603.0" y="289.0" text-anchor="end" class="tick" >2</text>
<line x1="610.0" y1="242.0" x2="1000.0" y2="242.0" class="grid"/>
<text x="603.0" y="245.0" text-anchor="end" class="tick" >4</text>
<line x1="610.0" y1="198.0" x2="1000.0" y2="198.0" class="grid"/>
<text x="603.0" y="201.0" text-anchor="end" class="tick" >6</text>
<line x1="610.0" y1="154.0" x2="1000.0" y2="154.0" class="grid"/>
<text x="603.0" y="157.0" text-anchor="end" class="tick" >8</text>
<line x1="610.0" y1="110.0" x2="1000.0" y2="110.0" class="grid"/>
<text x="603.0" y="113.0" text-anchor="end" class="tick" >10</text>
<line x1="610.0" y1="110.0" x2="610.0" y2="330.0" class="axisline"/>
<line x1="610.0" y1="330.0" x2="1000.0" y2="330.0" class="axisline"/>
<text x="567.0" y="220.0" text-anchor="middle" class="axis" transform="rotate(-90 567 220.0)">Top-10 signal hits</text>
<rect x="647.5" y="207.4" width="24.0" height="122.6" fill="#6b7280" rx="2"/>
<line x1="659.5" y1="204.8" x2="659.5" y2="209.9" stroke="#111827" stroke-width="1"/>
<line x1="655.5" y1="204.8" x2="663.5" y2="204.8" stroke="#111827" stroke-width="1"/>
<text x="659.5" y="201.4" text-anchor="middle" class="value" >5.6</text>
<rect x="679.5" y="166.3" width="24.0" height="163.7" fill="#0072B2" rx="2"/>
<line x1="691.5" y1="163.9" x2="691.5" y2="168.7" stroke="#111827" stroke-width="1"/>
<line x1="687.5" y1="163.9" x2="695.5" y2="163.9" stroke="#111827" stroke-width="1"/>
<text x="691.5" y="160.3" text-anchor="middle" class="value" >7.4</text>
<rect x="711.5" y="163.5" width="24.0" height="166.5" fill="#009E73" rx="2"/>
<line x1="723.5" y1="161.3" x2="723.5" y2="165.7" stroke="#111827" stroke-width="1"/>
<line x1="719.5" y1="161.3" x2="727.5" y2="161.3" stroke="#111827" stroke-width="1"/>
<text x="723.5" y="157.5" text-anchor="middle" class="value" >7.6</text>
<rect x="743.5" y="110.0" width="24.0" height="220.0" fill="#CC79A7" rx="2"/>
<line x1="755.5" y1="110.0" x2="755.5" y2="110.0" stroke="#111827" stroke-width="1"/>
<line x1="751.5" y1="110.0" x2="759.5" y2="110.0" stroke="#111827" stroke-width="1"/>
<text x="755.5" y="104.0" text-anchor="middle" class="value" >10.0</text>
<text x="707.5" y="360.0" text-anchor="middle" class="axis" >Margin drop</text>
<rect x="842.5" y="194.0" width="24.0" height="136.0" fill="#6b7280" rx="2"/>
<line x1="854.5" y1="191.7" x2="854.5" y2="196.2" stroke="#111827" stroke-width="1"/>
<line x1="850.5" y1="191.7" x2="858.5" y2="191.7" stroke="#111827" stroke-width="1"/>
<text x="854.5" y="188.0" text-anchor="middle" class="value" >6.2</text>
<rect x="874.5" y="167.9" width="24.0" height="162.1" fill="#0072B2" rx="2"/>
<line x1="886.5" y1="165.6" x2="886.5" y2="170.2" stroke="#111827" stroke-width="1"/>
<line x1="882.5" y1="165.6" x2="890.5" y2="165.6" stroke="#111827" stroke-width="1"/>
<text x="886.5" y="161.9" text-anchor="middle" class="value" >7.4</text>
<rect x="906.5" y="168.0" width="24.0" height="162.0" fill="#009E73" rx="2"/>
<line x1="918.5" y1="165.8" x2="918.5" y2="170.2" stroke="#111827" stroke-width="1"/>
<line x1="914.5" y1="165.8" x2="922.5" y2="165.8" stroke="#111827" stroke-width="1"/>
<text x="918.5" y="162.0" text-anchor="middle" class="value" >7.4</text>
<rect x="938.5" y="110.0" width="24.0" height="220.0" fill="#CC79A7" rx="2"/>
<line x1="950.5" y1="110.0" x2="950.5" y2="110.0" stroke="#111827" stroke-width="1"/>
<line x1="946.5" y1="110.0" x2="954.5" y2="110.0" stroke="#111827" stroke-width="1"/>
<text x="950.5" y="104.0" text-anchor="middle" class="value" >10.0</text>
<text x="902.5" y="360.0" text-anchor="middle" class="axis" >Abs logit change</text>
<text x="47.0" y="389.0" text-anchor="start" class="panel" >C</text>
<text x="290.0" y="389.0" text-anchor="middle" class="panel" >MLP</text>
<line x1="95.0" y1="625.0" x2="485.0" y2="625.0" class="grid"/>
<text x="88.0" y="628.0" text-anchor="end" class="tick" >0.75</text>
<line x1="95.0" y1="581.0" x2="485.0" y2="581.0" class="grid"/>
<text x="88.0" y="584.0" text-anchor="end" class="tick" >0.80</text>
<line x1="95.0" y1="537.0" x2="485.0" y2="537.0" class="grid"/>
<text x="88.0" y="540.0" text-anchor="end" class="tick" >0.85</text>
<line x1="95.0" y1="493.0" x2="485.0" y2="493.0" class="grid"/>
<text x="88.0" y="496.0" text-anchor="end" class="tick" >0.90</text>
<line x1="95.0" y1="449.0" x2="485.0" y2="449.0" class="grid"/>
<text x="88.0" y="452.0" text-anchor="end" class="tick" >0.95</text>
<line x1="95.0" y1="405.0" x2="485.0" y2="405.0" class="grid"/>
<text x="88.0" y="408.0" text-anchor="end" class="tick" >1.00</text>
<line x1="95.0" y1="405.0" x2="95.0" y2="625.0" class="axisline"/>
<line x1="95.0" y1="625.0" x2="485.0" y2="625.0" class="axisline"/>
<text x="52.0" y="515.0" text-anchor="middle" class="axis" transform="rotate(-90 52 515.0)">AUROC</text>
<rect x="132.5" y="538.8" width="24.0" height="86.2" fill="#6b7280" rx="2"/>
<line x1="144.5" y1="533.7" x2="144.5" y2="543.8" stroke="#111827" stroke-width="1"/>
<line x1="140.5" y1="533.7" x2="148.5" y2="533.7" stroke="#111827" stroke-width="1"/>
<text x="144.5" y="532.8" text-anchor="middle" class="value" >0.85</text>
<rect x="164.5" y="484.5" width="24.0" height="140.5" fill="#0072B2" rx="2"/>
<line x1="176.5" y1="479.7" x2="176.5" y2="489.3" stroke="#111827" stroke-width="1"/>
<line x1="172.5" y1="479.7" x2="180.5" y2="479.7" stroke="#111827" stroke-width="1"/>
<text x="176.5" y="478.5" text-anchor="middle" class="value" >0.91</text>
<rect x="196.5" y="477.0" width="24.0" height="148.0" fill="#009E73" rx="2"/>
<line x1="208.5" y1="473.1" x2="208.5" y2="480.9" stroke="#111827" stroke-width="1"/>
<line x1="204.5" y1="473.1" x2="212.5" y2="473.1" stroke="#111827" stroke-width="1"/>
<text x="208.5" y="471.0" text-anchor="middle" class="value" >0.92</text>
<rect x="228.5" y="405.0" width="24.0" height="220.0" fill="#CC79A7" rx="2"/>
<line x1="240.5" y1="405.0" x2="240.5" y2="405.0" stroke="#111827" stroke-width="1"/>
<line x1="236.5" y1="405.0" x2="244.5" y2="405.0" stroke="#111827" stroke-width="1"/>
<text x="240.5" y="399.0" text-anchor="middle" class="value" >1.00</text>
<text x="192.5" y="655.0" text-anchor="middle" class="axis" >Margin drop</text>
<rect x="327.5" y="536.3" width="24.0" height="88.7" fill="#6b7280" rx="2"/>
<line x1="339.5" y1="531.4" x2="339.5" y2="541.2" stroke="#111827" stroke-width="1"/>
<line x1="335.5" y1="531.4" x2="343.5" y2="531.4" stroke="#111827" stroke-width="1"/>
<text x="339.5" y="530.3" text-anchor="middle" class="value" >0.85</text>
<rect x="359.5" y="485.4" width="24.0" height="139.6" fill="#0072B2" rx="2"/>
<line x1="371.5" y1="480.6" x2="371.5" y2="490.1" stroke="#111827" stroke-width="1"/>
<line x1="367.5" y1="480.6" x2="375.5" y2="480.6" stroke="#111827" stroke-width="1"/>
<text x="371.5" y="479.4" text-anchor="middle" class="value" >0.91</text>
<rect x="391.5" y="490.2" width="24.0" height="134.8" fill="#009E73" rx="2"/>
<line x1="403.5" y1="486.1" x2="403.5" y2="494.4" stroke="#111827" stroke-width="1"/>
<line x1="399.5" y1="486.1" x2="407.5" y2="486.1" stroke="#111827" stroke-width="1"/>
<text x="403.5" y="484.2" text-anchor="middle" class="value" >0.90</text>
<rect x="423.5" y="405.0" width="24.0" height="220.0" fill="#CC79A7" rx="2"/>
<line x1="435.5" y1="405.0" x2="435.5" y2="405.0" stroke="#111827" stroke-width="1"/>
<line x1="431.5" y1="405.0" x2="439.5" y2="405.0" stroke="#111827" stroke-width="1"/>
<text x="435.5" y="399.0" text-anchor="middle" class="value" >1.00</text>
<text x="387.5" y="655.0" text-anchor="middle" class="axis" >Abs logit change</text>
<text x="562.0" y="389.0" text-anchor="start" class="panel" >D</text>
<text x="805.0" y="389.0" text-anchor="middle" class="panel" >Deep MLP</text>
<line x1="610.0" y1="625.0" x2="1000.0" y2="625.0" class="grid"/>
<text x="603.0" y="628.0" text-anchor="end" class="tick" >0.75</text>
<line x1="610.0" y1="581.0" x2="1000.0" y2="581.0" class="grid"/>
<text x="603.0" y="584.0" text-anchor="end" class="tick" >0.80</text>
<line x1="610.0" y1="537.0" x2="1000.0" y2="537.0" class="grid"/>
<text x="603.0" y="540.0" text-anchor="end" class="tick" >0.85</text>
<line x1="610.0" y1="493.0" x2="1000.0" y2="493.0" class="grid"/>
<text x="603.0" y="496.0" text-anchor="end" class="tick" >0.90</text>
<line x1="610.0" y1="449.0" x2="1000.0" y2="449.0" class="grid"/>
<text x="603.0" y="452.0" text-anchor="end" class="tick" >0.95</text>
<line x1="610.0" y1="405.0" x2="1000.0" y2="405.0" class="grid"/>
<text x="603.0" y="408.0" text-anchor="end" class="tick" >1.00</text>
<line x1="610.0" y1="405.0" x2="610.0" y2="625.0" class="axisline"/>
<line x1="610.0" y1="625.0" x2="1000.0" y2="625.0" class="axisline"/>
<text x="567.0" y="515.0" text-anchor="middle" class="axis" transform="rotate(-90 567 515.0)">AUROC</text>
<rect x="647.5" y="585.5" width="24.0" height="39.5" fill="#6b7280" rx="2"/>
<line x1="659.5" y1="579.5" x2="659.5" y2="591.6" stroke="#111827" stroke-width="1"/>
<line x1="655.5" y1="579.5" x2="663.5" y2="579.5" stroke="#111827" stroke-width="1"/>
<text x="659.5" y="579.5" text-anchor="middle" class="value" >0.79</text>
<rect x="679.5" y="506.3" width="24.0" height="118.7" fill="#0072B2" rx="2"/>
<line x1="691.5" y1="500.9" x2="691.5" y2="511.7" stroke="#111827" stroke-width="1"/>
<line x1="687.5" y1="500.9" x2="695.5" y2="500.9" stroke="#111827" stroke-width="1"/>
<text x="691.5" y="500.3" text-anchor="middle" class="value" >0.88</text>
<rect x="711.5" y="494.1" width="24.0" height="130.9" fill="#009E73" rx="2"/>
<line x1="723.5" y1="489.3" x2="723.5" y2="498.9" stroke="#111827" stroke-width="1"/>
<line x1="719.5" y1="489.3" x2="727.5" y2="489.3" stroke="#111827" stroke-width="1"/>
<text x="723.5" y="488.1" text-anchor="middle" class="value" >0.90</text>
<rect x="743.5" y="405.0" width="24.0" height="220.0" fill="#CC79A7" rx="2"/>
<line x1="755.5" y1="405.0" x2="755.5" y2="405.0" stroke="#111827" stroke-width="1"/>
<line x1="751.5" y1="405.0" x2="759.5" y2="405.0" stroke="#111827" stroke-width="1"/>
<text x="755.5" y="399.0" text-anchor="middle" class="value" >1.00</text>
<text x="707.5" y="655.0" text-anchor="middle" class="axis" >Margin drop</text>
<rect x="842.5" y="537.4" width="24.0" height="87.6" fill="#6b7280" rx="2"/>
<line x1="854.5" y1="532.2" x2="854.5" y2="542.5" stroke="#111827" stroke-width="1"/>
<line x1="850.5" y1="532.2" x2="858.5" y2="532.2" stroke="#111827" stroke-width="1"/>
<text x="854.5" y="531.4" text-anchor="middle" class="value" >0.85</text>
<rect x="874.5" y="500.5" width="24.0" height="124.5" fill="#0072B2" rx="2"/>
<line x1="886.5" y1="495.5" x2="886.5" y2="505.6" stroke="#111827" stroke-width="1"/>
<line x1="882.5" y1="495.5" x2="890.5" y2="495.5" stroke="#111827" stroke-width="1"/>
<text x="886.5" y="494.5" text-anchor="middle" class="value" >0.89</text>
<rect x="906.5" y="494.0" width="24.0" height="131.0" fill="#009E73" rx="2"/>
<line x1="918.5" y1="489.3" x2="918.5" y2="498.7" stroke="#111827" stroke-width="1"/>
<line x1="914.5" y1="489.3" x2="922.5" y2="489.3" stroke="#111827" stroke-width="1"/>
<text x="918.5" y="488.0" text-anchor="middle" class="value" >0.90</text>
<rect x="938.5" y="405.0" width="24.0" height="220.0" fill="#CC79A7" rx="2"/>
<line x1="950.5" y1="405.0" x2="950.5" y2="405.0" stroke="#111827" stroke-width="1"/>
<line x1="946.5" y1="405.0" x2="954.5" y2="405.0" stroke="#111827" stroke-width="1"/>
<text x="950.5" y="399.0" text-anchor="middle" class="value" >1.00</text>
<text x="902.5" y="655.0" text-anchor="middle" class="axis" >Abs logit change</text>
</svg>
